static_grf.mot
version=1
nRows=22
nColumns 19
inDegrees=yes
endheader
time	1_ground_force_vx	1_ground_force_vy	1_ground_force_vz	1_ground_force_px	1_ground_force_py	1_ground_force_pz	1_ground_torque_x	1_ground_torque_y	1_ground_torque_z	2_ground_force_vx	2_ground_force_vy	2_ground_force_vz	2_ground_force_px	2_ground_force_py	2_ground_force_pz	2_ground_torque_x	2_ground_torque_y	2_ground_torque_z
            0.005000	            5.310916	          336.520126	          -32.000156	           -0.294079	            0.006268	           -0.418385	            0.026086	            1.652926	           -0.157179	          -11.574822	          456.606290	           14.445103	           -0.257994	            0.005616	           -0.715509	           -0.059718	            2.355754	            0.074526
            0.005500	            5.310023	          335.800833	          -32.415947	           -0.294297	            0.006270	           -0.418785	            0.027123	            1.715223	           -0.165576	          -11.719298	          457.710186	           14.589890	           -0.257770	            0.005618	           -0.716002	           -0.060597	            2.366686	            0.075440
            0.006000	            5.539301	          336.701843	          -32.320939	           -0.293958	            0.006268	           -0.418336	            0.027146	            1.650038	           -0.158392	          -11.856668	          456.790085	           14.258167	           -0.257819	            0.005617	           -0.715562	           -0.061933	            2.386021	            0.074477
            0.006500	            5.539873	          335.439363	          -32.188786	           -0.294348	            0.006270	           -0.418819	            0.027680	            1.676016	           -0.160831	          -11.954212	          457.893481	           14.590646	           -0.257884	            0.005618	           -0.716011	           -0.062218	            2.383208	            0.075940
            0.007000	            5.310413	          336.160578	          -32.230977	           -0.294178	            0.006269	           -0.418698	            0.027141	            1.718073	           -0.164728	          -11.952259	          457.341393	           14.494819	           -0.257914	            0.005617	           -0.715705	           -0.062418	            2.388376	            0.075696
            0.007500	            5.218433	          336.521485	          -32.320916	           -0.294353	            0.006268	           -0.418369	            0.026274	            1.694315	           -0.162729	          -12.186467	          457.340213	           14.588775	           -0.257878	            0.005617	           -0.715834	           -0.065297	            2.450501	            0.078169
            0.008000	            5.356289	          335.980352	          -32.231864	           -0.294215	            0.006268	           -0.418452	            0.026771	            1.679275	           -0.161099	          -12.045294	          457.156853	           14.494201	           -0.257720	            0.005618	           -0.715866	           -0.063740	            2.419148	            0.076699
            0.008500	            5.264423	          336.341062	          -32.275950	           -0.294274	            0.006269	           -0.418674	            0.026287	            1.679472	           -0.161165	          -11.902689	          456.604437	           14.632955	           -0.257959	            0.005617	           -0.715721	           -0.062741	            2.406849	            0.077133
            0.009000	            5.402311	          335.619633	          -32.187671	           -0.294543	            0.006271	           -0.419065	            0.027784	            1.726097	           -0.165542	          -11.619013	          455.869558	           14.442495	           -0.257918	            0.005616	           -0.715365	           -0.062413	            2.448767	            0.077580
            0.009500	            5.539415	          336.701646	          -32.275087	           -0.294002	            0.006268	           -0.418327	            0.027885	            1.694909	           -0.162468	          -12.185261	          456.972875	           14.305892	           -0.257813	            0.005618	           -0.715945	           -0.065274	            2.447928	            0.076634
            0.010000	            5.585375	          335.439962	          -32.326464	           -0.294269	            0.006270	           -0.418889	            0.028750	            1.726637	           -0.166397	          -11.952321	          457.341896	           14.354035	           -0.257872	            0.005617	           -0.715788	           -0.062752	            2.401122	            0.075361
            0.010500	            5.448235	          335.799680	          -32.141153	           -0.294121	            0.006269	           -0.418582	            0.027509	            1.695493	           -0.162285	          -11.902771	          456.605106	           14.445243	           -0.257669	            0.005618	           -0.715681	           -0.063221	            2.425254	            0.076726
            0.011000	            5.447813	          335.620231	          -32.325349	           -0.294369	            0.006270	           -0.418803	            0.027858	            1.716228	           -0.165299	          -12.045959	          457.341055	           14.494859	           -0.257709	            0.005618	           -0.715789	           -0.063245	            2.401191	            0.076103
            0.011500	            5.401727	          335.079985	          -32.465126	           -0.294589	            0.006272	           -0.419367	            0.027403	            1.699891	           -0.164699	          -11.951053	          456.974055	           14.211936	           -0.257851	            0.005617	           -0.715653	           -0.063181	            2.415842	            0.075133
            0.012000	            5.448511	          336.159622	          -32.002043	           -0.293903	            0.006269	           -0.418615	            0.026781	            1.652305	           -0.157298	          -12.327784	          457.524683	           14.354851	           -0.257740	            0.005618	           -0.715882	           -0.065396	            2.427061	            0.076149
            0.012500	            5.356306	          335.259486	          -32.280815	           -0.294465	            0.006271	           -0.419090	            0.026472	            1.656948	           -0.159541	          -11.905533	          457.342567	           14.213230	           -0.257664	            0.005618	           -0.715705	           -0.062300	            2.393228	            0.074376
            0.013000	            5.310658	          335.439319	          -32.188217	           -0.294424	            0.006270	           -0.418876	            0.027010	            1.706039	           -0.163709	          -12.042718	          456.420960	           14.303861	           -0.257843	            0.005617	           -0.715553	           -0.064250	            2.435076	            0.076313
            0.013500	            5.447567	          336.341491	          -32.368117	           -0.294231	            0.006269	           -0.418624	            0.028200	            1.741107	           -0.167557	          -11.908712	          458.262099	           14.545012	           -0.257537	            0.005620	           -0.716231	           -0.063351	            2.437831	            0.077376
            0.014000	            5.264732	          336.520707	          -32.137606	           -0.294133	            0.006268	           -0.418458	            0.026196	            1.674453	           -0.159910	          -11.715310	          456.605281	           14.585947	           -0.257831	            0.005617	           -0.715799	           -0.060270	            2.349037	            0.075038
            0.014500	            5.631005	          335.980995	          -32.370118	           -0.293792	            0.006270	           -0.418858	            0.027908	            1.665150	           -0.160429	          -11.905971	          457.524866	           14.730097	           -0.257825	            0.005618	           -0.716040	           -0.062284	            2.393475	            0.077058
            0.015000	            5.493557	          336.161007	          -32.323144	           -0.294046	            0.006269	           -0.418540	            0.027816	            1.702118	           -0.163665	          -11.951553	          457.156857	           14.588018	           -0.257850	            0.005617	           -0.715745	           -0.065353	            2.499794	            0.079769
            0.015500	            5.401545	          336.702210	          -32.412309	           -0.294118	            0.006268	           -0.418345	            0.027770	            1.731031	           -0.166636	          -11.718071	          457.342741	           14.353935	           -0.257666	            0.005619	           -0.716031	           -0.061303	            2.392599	            0.075093
